<svg width="506" height="128" viewBox="0 0 506 128" fill="none" xmlns="http://www.w3.org/2000/svg">
<rect width="128" height="128" rx="13" fill="white"/>
<path d="M55.6958 54H26.604V46.6831H29.3506V30.7529H26.604V23.436H44.0723V30.7529H41.1719V46.6831H48.4009V41.7832H55.6958V54ZM71.9336 38.6411C71.9336 42.0396 72.2632 44.332 72.9224 45.5186C73.5522 46.7197 74.541 47.3203 75.8887 47.3203C77.2217 47.3203 78.2178 46.7417 78.877 45.5845C79.5361 44.4126 79.8657 42.0981 79.8657 38.6411C79.8657 35.2866 79.5435 33.0015 78.8989 31.7856C78.269 30.5845 77.2656 29.9839 75.8887 29.9839C74.5703 29.9839 73.5815 30.5625 72.9224 31.7197C72.2632 32.877 71.9336 35.1841 71.9336 38.6411ZM58.6621 38.6411C58.6621 36.0923 59.2847 33.624 60.5298 31.2363C61.7603 28.8633 63.6719 26.8638 66.2646 25.2378C67.1875 24.6665 68.1323 24.2124 69.0991 23.8755C70.0806 23.5386 71.1426 23.2822 72.2852 23.1064C73.4277 22.916 74.6289 22.8208 75.8887 22.8208C81.3672 22.8208 85.6079 24.4248 88.6108 27.6328C90.105 29.2148 91.2329 30.9287 91.9946 32.7744C92.7563 34.6201 93.1372 36.5757 93.1372 38.6411C93.1372 42.9038 91.5845 46.6099 88.479 49.7593C85.3735 52.9087 81.1768 54.4834 75.8887 54.4834C70.7764 54.4834 66.6309 53.0039 63.4521 50.0449C60.2588 47.1006 58.6621 43.2993 58.6621 38.6411ZM50.1367 96.4751H47.0166V90.6743H60.6836C60.6836 94.0142 60.4492 96.4971 59.9805 98.123C59.5264 99.6904 58.5742 101.28 57.124 102.891C55.7031 104.488 53.9819 105.652 51.9604 106.385C49.939 107.117 47.771 107.483 45.4565 107.483C42.0142 107.483 38.8867 106.912 36.0742 105.77C33.2471 104.656 31.0645 102.811 29.5264 100.232C27.9736 97.6982 27.1973 94.8564 27.1973 91.707C27.1973 86.9463 28.7646 83.1084 31.8994 80.1934C35.0049 77.2783 38.8135 75.8208 43.3252 75.8208C47.0898 75.8208 50.0415 76.7363 52.1802 78.5674V76.436H59.541V87.1147H52.1802C51.5356 85.7964 50.6934 84.8003 49.6533 84.1265C48.6279 83.4526 47.4268 83.1157 46.0498 83.1157C44.1162 83.1157 42.6953 83.7456 41.7871 85.0054C40.8936 86.2651 40.4468 88.5796 40.4468 91.9487C40.4468 95.3032 40.9155 97.5811 41.853 98.7822C42.8052 99.998 44.1895 100.606 46.0059 100.606C48.7598 100.606 50.1367 99.229 50.1367 96.4751ZM78.5254 91.6411C78.5254 95.0396 78.855 97.332 79.5142 98.5186C80.144 99.7197 81.1328 100.32 82.4805 100.32C83.8135 100.32 84.8096 99.7417 85.4688 98.5845C86.1279 97.4126 86.4575 95.0981 86.4575 91.6411C86.4575 88.2866 86.1353 86.0015 85.4907 84.7856C84.8608 83.5845 83.8574 82.9839 82.4805 82.9839C81.1621 82.9839 80.1733 83.5625 79.5142 84.7197C78.855 85.877 78.5254 88.1841 78.5254 91.6411ZM65.2539 91.6411C65.2539 89.0923 65.8765 86.624 67.1216 84.2363C68.3521 81.8633 70.2637 79.8638 72.8564 78.2378C73.7793 77.6665 74.7241 77.2124 75.6909 76.8755C76.6724 76.5386 77.7344 76.2822 78.877 76.1064C80.0195 75.916 81.2207 75.8208 82.4805 75.8208C87.959 75.8208 92.1997 77.4248 95.2026 80.6328C96.6968 82.2148 97.8247 83.9287 98.5864 85.7744C99.3481 87.6201 99.729 89.5757 99.729 91.6411C99.729 95.9038 98.1763 99.6099 95.0708 102.759C91.9653 105.909 87.7686 107.483 82.4805 107.483C77.3682 107.483 73.2227 106.004 70.0439 103.045C66.8506 100.101 65.2539 96.2993 65.2539 91.6411Z" fill="#5A08AC"/>
<path d="M139.6 41H166.08C172.213 41 177.653 42.1467 182.4 44.44C187.147 46.7333 190.827 49.9867 193.44 54.2C196.053 58.4133 197.36 63.3467 197.36 69C197.36 74.6533 196.053 79.5867 193.44 83.8C190.827 88.0133 187.147 91.2667 182.4 93.56C177.653 95.8533 172.213 97 166.08 97H139.6V41ZM165.44 84.36C170.24 84.36 174.08 83 176.96 80.28C179.893 77.56 181.36 73.8 181.36 69C181.36 64.2 179.893 60.44 176.96 57.72C174.08 55 170.24 53.64 165.44 53.64H155.44V84.36H165.44ZM249.294 75.4C249.294 75.5067 249.214 76.76 249.054 79.16H217.534C218.174 81.4 219.4 83.1333 221.214 84.36C223.08 85.5333 225.4 86.12 228.174 86.12C230.254 86.12 232.04 85.8267 233.534 85.24C235.08 84.6533 236.627 83.6933 238.174 82.36L246.174 90.68C241.96 95.3733 235.8 97.72 227.694 97.72C222.627 97.72 218.174 96.76 214.334 94.84C210.494 92.92 207.507 90.2533 205.374 86.84C203.294 83.4267 202.254 79.56 202.254 75.24C202.254 70.9733 203.267 67.16 205.294 63.8C207.374 60.3867 210.227 57.72 213.854 55.8C217.48 53.88 221.56 52.92 226.094 52.92C230.414 52.92 234.334 53.8267 237.854 55.64C241.374 57.4 244.147 59.9867 246.174 63.4C248.254 66.76 249.294 70.76 249.294 75.4ZM226.174 63.72C223.827 63.72 221.854 64.3867 220.254 65.72C218.707 67.0533 217.72 68.8667 217.294 71.16H235.054C234.627 68.8667 233.614 67.0533 232.014 65.72C230.467 64.3867 228.52 63.72 226.174 63.72ZM272.862 55.24H283.182V66.6H273.262V97H258.062V66.6H251.742V55.24H258.062V54.12C258.062 48.84 259.635 44.6533 262.782 41.56C265.982 38.4667 270.435 36.92 276.142 36.92C278.062 36.92 279.929 37.1067 281.742 37.48C283.555 37.8533 285.049 38.4133 286.222 39.16L282.462 49.88C280.969 49.0267 279.449 48.6 277.902 48.6C276.302 48.6 275.049 49.08 274.142 50.04C273.289 51 272.862 52.4133 272.862 54.28V55.24ZM295.182 53.64H310.382V97H295.182V53.64ZM302.782 48.84C300.009 48.84 297.769 48.0667 296.062 46.52C294.355 44.9733 293.502 43.0533 293.502 40.76C293.502 38.4667 294.355 36.5467 296.062 35C297.769 33.4533 300.009 32.68 302.782 32.68C305.555 32.68 307.795 33.4267 309.502 34.92C311.209 36.36 312.062 38.2267 312.062 40.52C312.062 42.92 311.209 44.92 309.502 46.52C307.795 48.0667 305.555 48.84 302.782 48.84ZM397.489 41V97H384.449L359.729 67.16V97H344.209V41H357.249L381.969 70.84V41H397.489ZM424.503 53.24V65.56H449.223V77.8H424.503V97H408.663V41H452.583V53.24H424.503ZM472.301 53.56H455.101V41H505.261V53.56H488.141V97H472.301V53.56Z" fill="white"/>
</svg>
