<svg width="128" height="128" viewBox="0 0 128 128" fill="none" xmlns="http://www.w3.org/2000/svg">
<path d="M101.333 16H26.6667C20.7756 16 16 20.7756 16 26.6667V101.333C16 107.224 20.7756 112 26.6667 112H101.333C107.224 112 112 107.224 112 101.333V26.6667C112 20.7756 107.224 16 101.333 16Z" stroke="#07305F" stroke-width="4" stroke-linecap="round" stroke-linejoin="round"/>
<path d="M45.3333 53.3333C49.7516 53.3333 53.3333 49.7515 53.3333 45.3333C53.3333 40.915 49.7516 37.3333 45.3333 37.3333C40.9151 37.3333 37.3333 40.915 37.3333 45.3333C37.3333 49.7515 40.9151 53.3333 45.3333 53.3333Z" stroke="#07305F" stroke-width="4" stroke-linecap="round" stroke-linejoin="round"/>
<path d="M112 79.9999L85.3333 53.3333L26.6667 112" stroke="#07305F" stroke-width="4" stroke-linecap="round" stroke-linejoin="round"/>
</svg>
